# xmcd
#
# Track frame offsets: 
#        150
#        16173
#        32411
#        56295
#        75379
#        91720
#        111243
#        131232
#        146299
#        164760
#        183159
#        206046
#        227496
#        248688
#        272313
#        287592
#        311515
#
# Disc length: 4366 seconds
#
# Revision: 0
# Processed by: cddbd v1.5.2PL0 Copyright (c) Steve Scherf et al.
# Submitted via: ExactAudioCopy v0.95b3
#
DISCID=d2110c11
DTITLE=Mick Jagger  - The Very Best Of Mick Jagger (2007)  FLAC
DYEAR=1900
DGENRE=
TTITLE0=God Gave Me Everything
TTITLE1=Put Me in the Trash
TTITLE2=Just Another Night
TTITLE3=Don't Tear Me Up
TTITLE4=Charmed Life
TTITLE5=Sweet Thing
TTITLE6=Old Habits Die Hard
TTITLE7=Dancing in the Street
TTITLE8=Too Many Cooks (Spoil the Soup)
TTITLE9=Memo from Turner
TTITLE10=Lucky in Love
TTITLE11=Let's Work
TTITLE12=Joy
TTITLE13=Don't Call Me Up
TTITLE14=Checkin' Up on My Baby
TTITLE15=(You Got to Walk And) Don't Look Back
TTITLE16=Evening Gown
EXTD=
EXTT0=
EXTT1=
EXTT2=
EXTT3=
EXTT4=
EXTT5=
EXTT6=
EXTT7=
EXTT8=
EXTT9=
EXTT10=
EXTT11=
EXTT12=
EXTT13=
EXTT14=
EXTT15=
EXTT16=
PLAYORDER=
